<svg width="18" height="18" viewBox="0 0 18 18" fill="none" xmlns="http://www.w3.org/2000/svg">
<mask id="path-1-inside-1_962_761" fill="white">
<path d="M8.4055 1.7998C8.78747 1.79989 9.15377 1.95169 9.42382 2.22183L15.6922 8.49023C16.0175 8.81756 16.2 9.26028 16.2 9.72173C16.2 10.1832 16.0175 10.6259 15.6922 10.9532L10.9535 15.692C10.6261 16.0172 10.1834 16.1998 9.72198 16.1998C9.26052 16.1998 8.81781 16.0172 8.49048 15.692L2.22207 9.42358C1.95193 9.15352 1.80013 8.78723 1.80005 8.40525V3.24016C1.80005 2.85815 1.9518 2.49179 2.22192 2.22167C2.49204 1.95156 2.85839 1.7998 3.2404 1.7998H8.4055Z"/>
</mask>
<path d="M8.4055 1.7998C8.78747 1.79989 9.15377 1.95169 9.42382 2.22183L15.6922 8.49023C16.0175 8.81756 16.2 9.26028 16.2 9.72173C16.2 10.1832 16.0175 10.6259 15.6922 10.9532L10.9535 15.692C10.6261 16.0172 10.1834 16.1998 9.72198 16.1998C9.26052 16.1998 8.81781 16.0172 8.49048 15.692L2.22207 9.42358C1.95193 9.15352 1.80013 8.78723 1.80005 8.40525V3.24016C1.80005 2.85815 1.9518 2.49179 2.22192 2.22167C2.49204 1.95156 2.85839 1.7998 3.2404 1.7998H8.4055Z" stroke="#344441" stroke-width="4" stroke-linecap="round" mask="url(#path-1-inside-1_962_761)"/>
</svg>
