<svg width="100" height="100" viewBox="0 0 100 100" fill="none" xmlns="http://www.w3.org/2000/svg">
<path d="M45.5842 21.9745C50.2822 23.3282 54.5645 25.8411 58.0377 29.2822C61.5108 32.7234 64.0632 36.9824 65.4604 41.6677H72.9192C75.9403 41.6678 78.9167 42.3978 81.595 43.7957C84.2733 45.1936 86.5742 47.218 88.3018 49.6965C90.0294 52.175 91.1325 55.0342 91.5174 58.0308C91.9022 61.0274 91.5572 64.0726 90.5119 66.9072M78.3169 78.3784C76.5651 78.9043 74.7457 79.171 72.9166 79.1701H37.4978C30.9597 79.169 24.6116 76.9714 19.4723 72.9298C14.333 68.8883 10.7005 63.2373 9.15779 56.8838C7.61509 50.5302 8.25166 43.8426 10.9653 37.8942C13.679 31.9459 18.3124 27.0817 24.1219 24.0824M8.33008 8.32999L91.6685 91.67" stroke="#DF0C24" stroke-width="2" stroke-linecap="round"/>
</svg>
