<svg width="18" height="18" viewBox="0 0 18 18" fill="none" xmlns="http://www.w3.org/2000/svg">
<g clip-path="url(#clip0_1273_1247)">
<path d="M5.24969 15.4966V14.25C5.24969 13.8522 5.40774 13.4706 5.68906 13.1893C5.97039 12.908 6.35195 12.7499 6.74981 12.7499H11.2502C11.648 12.7499 12.0296 12.908 12.3109 13.1893C12.5922 13.4706 12.7503 13.8522 12.7503 14.25V15.4966M16.5006 8.99962C16.5006 13.1421 13.1425 16.5002 8.99999 16.5002C4.85752 16.5002 1.49939 13.1421 1.49939 8.99962C1.49939 4.85716 4.85752 1.49902 8.99999 1.49902C13.1425 1.49902 16.5006 4.85716 16.5006 8.99962ZM11.2502 7.4995C11.2502 8.74224 10.2427 9.74968 8.99999 9.74968C7.75725 9.74968 6.74981 8.74224 6.74981 7.4995C6.74981 6.25676 7.75725 5.24932 8.99999 5.24932C10.2427 5.24932 11.2502 6.25676 11.2502 7.4995Z" stroke="#405654" stroke-width="2" stroke-linecap="round"/>
</g>
<defs>
<clipPath id="clip0_1273_1247">
<rect width="18" height="18" fill="white"/>
</clipPath>
</defs>
</svg>
