<svg width="18" height="18" viewBox="0 0 18 18" fill="none" xmlns="http://www.w3.org/2000/svg">
<g clip-path="url(#clip0_1273_1162)">
<path d="M5.2497 15.497V14.2504C5.2497 13.8526 5.40775 13.471 5.68908 13.1897C5.97041 12.9083 6.35197 12.7503 6.74982 12.7503H11.2502C11.648 12.7503 12.0296 12.9083 12.3109 13.1897C12.5923 13.471 12.7503 13.8526 12.7503 14.2504V15.497M16.5006 8.99999C16.5006 13.1425 13.1425 16.5006 9 16.5006C4.85754 16.5006 1.4994 13.1425 1.4994 8.99999C1.4994 4.85752 4.85754 1.49939 9 1.49939C13.1425 1.49939 16.5006 4.85752 16.5006 8.99999ZM11.2502 7.49987C11.2502 8.74261 10.2427 9.75005 9 9.75005C7.75726 9.75005 6.74982 8.74261 6.74982 7.49987C6.74982 6.25713 7.75726 5.24969 9 5.24969C10.2427 5.24969 11.2502 6.25713 11.2502 7.49987Z" stroke="#405654" stroke-width="2" stroke-linecap="round"/>
</g>
<defs>
<clipPath id="clip0_1273_1162">
<rect width="18" height="18" fill="white"/>
</clipPath>
</defs>
</svg>
